<svg width="38" height="37" viewBox="0 0 38 37" fill="none" xmlns="http://www.w3.org/2000/svg">
<g clip-path="url(#clip0_12003_290)">
<path d="M24.6394 27.8479H20.1069V32.3804H24.6394V27.8479Z" stroke="black" stroke-width="0.932616" stroke-linecap="round" stroke-linejoin="round"/>
<path d="M32.5481 20.1008H28.0156V32.3803H32.5481V20.1008Z" stroke="black" stroke-width="0.932616" stroke-linecap="round" stroke-linejoin="round"/>
<path d="M16.0161 20.1072H16.7373V20.816" stroke="black" stroke-width="0.932616" stroke-linecap="round" stroke-linejoin="round"/>
<path d="M24.6394 20.1008H20.1069V24.6333H24.6394V20.1008Z" stroke="black" stroke-width="0.932616" stroke-linecap="round" stroke-linejoin="round"/>
<path d="M16.7308 12.3601H12.1982V16.8926H16.7308V12.3601Z" stroke="black" stroke-width="0.932616" stroke-linecap="round" stroke-linejoin="round"/>
<path d="M24.6394 12.3601H20.1069V16.8926H24.6394V12.3601Z" stroke="black" stroke-width="0.932616" stroke-linecap="round" stroke-linejoin="round"/>
<path d="M32.5481 12.3601H28.0156V16.8926H32.5481V12.3601Z" stroke="black" stroke-width="0.932616" stroke-linecap="round" stroke-linejoin="round"/>
<path d="M32.5417 4.61304H12.1982V9.14555H32.5417V4.61304Z" stroke="black" stroke-width="0.932616" stroke-linecap="round" stroke-linejoin="round"/>
<path d="M8.20068 17.2034V2.0826C8.20068 1.18729 8.92191 0.466064 9.81722 0.466064H34.9357C35.8248 0.466064 36.5522 1.18729 36.5522 2.0826V34.9107C36.5522 35.806 35.8248 36.5272 34.9357 36.5272H15.2388" stroke="black" stroke-width="0.932616" stroke-linecap="round" stroke-linejoin="round"/>
<path d="M12.5384 35.8756C17.0122 34.0426 19.153 28.9298 17.32 24.456C15.487 19.9822 10.3742 17.8414 5.9004 19.6744C1.42656 21.5074 -0.714232 26.6202 1.1188 31.094C2.95183 35.5678 8.06455 37.7086 12.5384 35.8756Z" stroke="black" stroke-width="0.932616" stroke-linecap="round" stroke-linejoin="round"/>
<path d="M5.47754 26.7412L8.85361 30.1173L13.5353 25.4355" stroke="black" stroke-width="0.932616" stroke-linecap="round" stroke-linejoin="round"/>
</g>
<defs>
<clipPath id="clip0_12003_290">
<rect width="37.0187" height="37" fill="white"/>
</clipPath>
</defs>
</svg>
