<svg width="50" height="50" viewBox="0 0 50 50" fill="none" xmlns="http://www.w3.org/2000/svg">
<g clip-path="url(#clip0_12003_241)">
<path d="M28.5699 4.64002C28.5699 6.84002 26.8099 8.63002 24.6299 8.63002C22.4499 8.63002 20.6899 6.84002 20.6899 4.64002C20.6899 2.44002 22.4499 0.650024 24.6299 0.650024C26.8099 0.650024 28.5699 2.43002 28.5699 4.64002Z" stroke="black" stroke-width="1.3" stroke-linecap="round" stroke-linejoin="round"/>
<path d="M29.5 20.26V15.76" stroke="black" stroke-width="1.3" stroke-linecap="round" stroke-linejoin="round"/>
<path d="M19.75 20.26V15.76" stroke="black" stroke-width="1.3" stroke-linecap="round" stroke-linejoin="round"/>
<path d="M16.6499 20.22V15.46C16.6499 12.66 18.9299 10.39 21.7399 10.39H27.5699C30.3799 10.39 32.6599 12.66 32.6599 15.46V20.26" stroke="black" stroke-width="1.3" stroke-linecap="round" stroke-linejoin="round"/>
<path d="M12.5699 32.86C12.5699 35.06 10.8099 36.85 8.62994 36.85C6.44994 36.85 4.68994 35.06 4.68994 32.86C4.68994 30.66 6.44994 28.87 8.62994 28.87C10.8099 28.87 12.5699 30.65 12.5699 32.86Z" stroke="black" stroke-width="1.3" stroke-linecap="round" stroke-linejoin="round"/>
<path d="M13.5 48.48V43.98" stroke="black" stroke-width="1.3" stroke-linecap="round" stroke-linejoin="round"/>
<path d="M3.75 48.48V43.98" stroke="black" stroke-width="1.3" stroke-linecap="round" stroke-linejoin="round"/>
<path d="M0.649902 48.44V43.68C0.649902 40.88 2.9299 38.61 5.7399 38.61H11.5699C14.3799 38.61 16.6599 40.88 16.6599 43.68V48.48" stroke="black" stroke-width="1.3" stroke-linecap="round" stroke-linejoin="round"/>
<path d="M44.5699 32.86C44.5699 35.06 42.8099 36.85 40.6299 36.85C38.4499 36.85 36.6899 35.06 36.6899 32.86C36.6899 30.66 38.4499 28.87 40.6299 28.87C42.8099 28.87 44.5699 30.65 44.5699 32.86Z" stroke="black" stroke-width="1.3" stroke-linecap="round" stroke-linejoin="round"/>
<path d="M45.5 48.48V43.98" stroke="black" stroke-width="1.3" stroke-linecap="round" stroke-linejoin="round"/>
<path d="M35.75 48.48V43.98" stroke="black" stroke-width="1.3" stroke-linecap="round" stroke-linejoin="round"/>
<path d="M32.6499 48.44V43.68C32.6499 40.88 34.9299 38.61 37.7399 38.61H43.5699C46.3799 38.61 48.6599 40.88 48.6599 43.68V48.48" stroke="black" stroke-width="1.3" stroke-linecap="round" stroke-linejoin="round"/>
<path d="M24.6499 26.46V31.44" stroke="black" stroke-width="1.3" stroke-linecap="round" stroke-linejoin="round"/>
<path d="M24.65 31.54L20.02 33.43" stroke="black" stroke-width="1.3" stroke-linecap="round" stroke-linejoin="round"/>
<path d="M24.6499 31.54L29.2799 33.43" stroke="black" stroke-width="1.3" stroke-linecap="round" stroke-linejoin="round"/>
</g>
<defs>
<clipPath id="clip0_12003_241">
<rect width="49.3" height="49.13" fill="white"/>
</clipPath>
</defs>
</svg>
