<svg width="41" height="43" viewBox="0 0 41 43" fill="none" xmlns="http://www.w3.org/2000/svg">
<g clip-path="url(#clip0_12003_258)">
<path d="M10.4531 9.53369H5.08496V14.9018H10.4531V9.53369Z" stroke="black" stroke-width="1.06089" stroke-linecap="round" stroke-linejoin="round"/>
<path d="M6.5918 11.9244L7.52538 12.8579L8.88333 11.5" stroke="black" stroke-width="1.06089" stroke-linecap="round" stroke-linejoin="round"/>
<path d="M13.6997 10.5593H25.1927" stroke="black" stroke-width="1.06089" stroke-linecap="round" stroke-linejoin="round"/>
<path d="M13.6997 13.8833H22.0454" stroke="black" stroke-width="1.06089" stroke-linecap="round" stroke-linejoin="round"/>
<path d="M10.4531 18.1978H5.08496V23.5659H10.4531V18.1978Z" stroke="black" stroke-width="1.06089" stroke-linecap="round" stroke-linejoin="round"/>
<path d="M6.5918 20.5884L7.52538 21.522L8.88333 20.1641" stroke="black" stroke-width="1.06089" stroke-linecap="round" stroke-linejoin="round"/>
<path d="M13.6997 19.2231H23.0497" stroke="black" stroke-width="1.06089" stroke-linecap="round" stroke-linejoin="round"/>
<path d="M13.6997 22.5474H22.0454" stroke="black" stroke-width="1.06089" stroke-linecap="round" stroke-linejoin="round"/>
<path d="M10.4531 26.8618H5.08496V32.2299H10.4531V26.8618Z" stroke="black" stroke-width="1.06089" stroke-linecap="round" stroke-linejoin="round"/>
<path d="M6.5918 29.2522L7.52538 30.1858L8.88333 28.8279" stroke="black" stroke-width="1.06089" stroke-linecap="round" stroke-linejoin="round"/>
<path d="M13.6997 27.8801H22.0454" stroke="black" stroke-width="1.06089" stroke-linecap="round" stroke-linejoin="round"/>
<path d="M13.6997 31.2043H17.8726" stroke="black" stroke-width="1.06089" stroke-linecap="round" stroke-linejoin="round"/>
<path d="M16.7266 38.2344H0.530273V0.530273H29.7473V16.1961" stroke="black" stroke-width="1.06089" stroke-linecap="round" stroke-linejoin="round"/>
<path d="M9.98682 5.36816H20.2916" stroke="black" stroke-width="1.06089" stroke-linecap="round" stroke-linejoin="round"/>
<path d="M29.7405 28.8916C32.6935 28.8916 35.0874 26.4977 35.0874 23.5447C35.0874 20.5916 32.6935 18.1978 29.7405 18.1978C26.7874 18.1978 24.3936 20.5916 24.3936 23.5447C24.3936 26.4977 26.7874 28.8916 29.7405 28.8916Z" stroke="black" stroke-width="1.06089" stroke-linecap="round" stroke-linejoin="round"/>
<path d="M31.7913 28.9199L30.6526 31.9187H29.7402" stroke="black" stroke-width="1.06089" stroke-linecap="round" stroke-linejoin="round"/>
<path d="M32.3503 41.5516L30.6528 31.9258" stroke="black" stroke-width="1.06089" stroke-linecap="round" stroke-linejoin="round"/>
<path d="M27.6963 28.9199L28.835 31.9187H29.7403" stroke="black" stroke-width="1.06089" stroke-linecap="round" stroke-linejoin="round"/>
<path d="M28.8351 31.9258L27.1377 41.5516" stroke="black" stroke-width="1.06089" stroke-linecap="round" stroke-linejoin="round"/>
<path d="M28.3612 28.8916H31.1196C36.2755 28.8916 40.4625 33.0786 40.4625 38.2345V41.5516H19.0112V38.2345C19.0112 33.0786 23.1982 28.8916 28.3542 28.8916H28.3612Z" stroke="black" stroke-width="1.06089" stroke-linecap="round" stroke-linejoin="round"/>
</g>
<defs>
<clipPath id="clip0_12003_258">
<rect width="41" height="42.0821" fill="white"/>
</clipPath>
</defs>
</svg>
