<svg width="34" height="34" viewBox="0 0 34 34" fill="none" xmlns="http://www.w3.org/2000/svg">
<g clip-path="url(#clip0_12003_219)">
<path d="M7.33105 13.5861V8.19984V7.8964V0.44812H26.6552V7.8964V8.19984V13.5585V33.5516H26.2138H19.7586H14.2414H7.33105V33.5171V13.5861Z" stroke="black" stroke-width="0.896552" stroke-linecap="round" stroke-linejoin="round"/>
<path d="M12.8621 10.1102H10.1035V12.8689H12.8621V10.1102Z" stroke="black" stroke-width="0.896552" stroke-linecap="round" stroke-linejoin="round"/>
<path d="M23.8963 10.1102H21.1377V12.8689H23.8963V10.1102Z" stroke="black" stroke-width="0.896552" stroke-linecap="round" stroke-linejoin="round"/>
<path d="M18.3792 10.1102H15.6206V12.8689H18.3792V10.1102Z" stroke="black" stroke-width="0.896552" stroke-linecap="round" stroke-linejoin="round"/>
<path d="M12.8621 3.91028H10.1035V6.662H12.8621V3.91028Z" stroke="black" stroke-width="0.896552" stroke-linecap="round" stroke-linejoin="round"/>
<path d="M23.8963 3.91028H21.1377V6.662H23.8963V3.91028Z" stroke="black" stroke-width="0.896552" stroke-linecap="round" stroke-linejoin="round"/>
<path d="M18.3792 3.91028H15.6206V6.662H18.3792V3.91028Z" stroke="black" stroke-width="0.896552" stroke-linecap="round" stroke-linejoin="round"/>
<path d="M12.8621 16.3171H10.1035V19.0758H12.8621V16.3171Z" stroke="black" stroke-width="0.896552" stroke-linecap="round" stroke-linejoin="round"/>
<path d="M4.71019 16.8757H2.51709V19.0757H4.71019V16.8757Z" stroke="black" stroke-width="0.896552" stroke-linecap="round" stroke-linejoin="round"/>
<path d="M4.69652 23.1655H2.50342V25.3586H4.69652V23.1655Z" stroke="black" stroke-width="0.896552" stroke-linecap="round" stroke-linejoin="round"/>
<path d="M31.4831 16.8757H29.29V19.0757H31.4831V16.8757Z" stroke="black" stroke-width="0.896552" stroke-linecap="round" stroke-linejoin="round"/>
<path d="M31.469 23.1655H29.2759V25.3586H31.469V23.1655Z" stroke="black" stroke-width="0.896552" stroke-linecap="round" stroke-linejoin="round"/>
<path d="M23.8963 16.3171H21.1377V19.0758H23.8963V16.3171Z" stroke="black" stroke-width="0.896552" stroke-linecap="round" stroke-linejoin="round"/>
<path d="M18.3792 16.3171H15.6206V19.0758H18.3792V16.3171Z" stroke="black" stroke-width="0.896552" stroke-linecap="round" stroke-linejoin="round"/>
<path d="M12.8621 22.5171H10.1035V25.2757H12.8621V22.5171Z" stroke="black" stroke-width="0.896552" stroke-linecap="round" stroke-linejoin="round"/>
<path d="M23.8963 22.5171H21.1377V25.2757H23.8963V22.5171Z" stroke="black" stroke-width="0.896552" stroke-linecap="round" stroke-linejoin="round"/>
<path d="M18.3792 22.5171H15.6206V25.2757H18.3792V22.5171Z" stroke="black" stroke-width="0.896552" stroke-linecap="round" stroke-linejoin="round"/>
<path d="M14.2412 33.5517V28.0344H19.7585V33.5517" stroke="black" stroke-width="0.896552" stroke-linecap="round" stroke-linejoin="round"/>
<path d="M5.51031 33.5516H4.931H0.448242V13.5585H5.37238H5.51031" stroke="black" stroke-width="0.896552" stroke-linecap="round" stroke-linejoin="round"/>
<path d="M28.5103 33.5516H33.5516V13.5585H28.5103" stroke="black" stroke-width="0.896552" stroke-linecap="round" stroke-linejoin="round"/>
</g>
<defs>
<clipPath id="clip0_12003_219">
<rect width="34" height="34" fill="white"/>
</clipPath>
</defs>
</svg>
