<svg width="63" height="62" viewBox="0 0 63 62" fill="none" xmlns="http://www.w3.org/2000/svg">
<g clip-path="url(#clip0_12013_399)">
<path d="M36.0541 5.85552C36.0541 8.63183 33.833 10.8907 31.082 10.8907C28.3309 10.8907 26.1099 8.63183 26.1099 5.85552C26.1099 3.07922 28.3309 0.820312 31.082 0.820312C33.833 0.820312 36.0541 3.0666 36.0541 5.85552Z" stroke="black" stroke-width="1.64055" stroke-linecap="round" stroke-linejoin="round"/>
<path d="M37.2278 25.5673V19.8885" stroke="black" stroke-width="1.64055" stroke-linecap="round" stroke-linejoin="round"/>
<path d="M24.9236 25.5673V19.8885" stroke="black" stroke-width="1.64055" stroke-linecap="round" stroke-linejoin="round"/>
<path d="M21.0115 25.5168V19.5099C21.0115 15.9764 23.8887 13.1118 27.4348 13.1118H34.7921C38.3382 13.1118 41.2154 15.9764 41.2154 19.5099V25.5673" stroke="black" stroke-width="1.64055" stroke-linecap="round" stroke-linejoin="round"/>
<path d="M15.8627 41.468C15.8627 44.2443 13.6416 46.5032 10.8906 46.5032C8.1395 46.5032 5.91846 44.2443 5.91846 41.468C5.91846 38.6916 8.1395 36.4327 10.8906 36.4327C13.6416 36.4327 15.8627 38.679 15.8627 41.468Z" stroke="black" stroke-width="1.64055" stroke-linecap="round" stroke-linejoin="round"/>
<path d="M17.0364 61.1797V55.5009" stroke="black" stroke-width="1.64055" stroke-linecap="round" stroke-linejoin="round"/>
<path d="M4.73242 61.1797V55.5009" stroke="black" stroke-width="1.64055" stroke-linecap="round" stroke-linejoin="round"/>
<path d="M0.820068 61.1292V55.1223C0.820068 51.5888 3.69733 48.7242 7.24343 48.7242H14.6007C18.1468 48.7242 21.024 51.5888 21.024 55.1223V61.1797" stroke="black" stroke-width="1.64055" stroke-linecap="round" stroke-linejoin="round"/>
<path d="M56.2455 41.468C56.2455 44.2443 54.0245 46.5032 51.2734 46.5032C48.5223 46.5032 46.3013 44.2443 46.3013 41.468C46.3013 38.6916 48.5223 36.4327 51.2734 36.4327C54.0245 36.4327 56.2455 38.679 56.2455 41.468Z" stroke="black" stroke-width="1.64055" stroke-linecap="round" stroke-linejoin="round"/>
<path d="M57.4192 61.1797V55.5009" stroke="black" stroke-width="1.64055" stroke-linecap="round" stroke-linejoin="round"/>
<path d="M45.115 61.1797V55.5009" stroke="black" stroke-width="1.64055" stroke-linecap="round" stroke-linejoin="round"/>
<path d="M41.2029 61.1292V55.1223C41.2029 51.5888 44.0801 48.7242 47.6262 48.7242H54.9835C58.5296 48.7242 61.4068 51.5888 61.4068 55.1223V61.1797" stroke="black" stroke-width="1.64055" stroke-linecap="round" stroke-linejoin="round"/>
<path d="M31.1072 33.3914V39.676" stroke="black" stroke-width="1.64055" stroke-linecap="round" stroke-linejoin="round"/>
<path d="M31.1073 39.8021L25.2644 42.1872" stroke="black" stroke-width="1.64055" stroke-linecap="round" stroke-linejoin="round"/>
<path d="M31.1072 39.8021L36.95 42.1872" stroke="black" stroke-width="1.64055" stroke-linecap="round" stroke-linejoin="round"/>
</g>
<defs>
<clipPath id="clip0_12013_399">
<rect width="62.2145" height="62" fill="white"/>
</clipPath>
</defs>
</svg>
