<svg width="53" height="53" viewBox="0 0 53 53" fill="none" xmlns="http://www.w3.org/2000/svg">
<g clip-path="url(#clip0_12013_159)">
<path d="M11.4277 21.1783V12.7822V12.3092V0.698608H41.5507V12.3092V12.7822V21.1353V52.301H40.8626H30.8001H22.1997H11.4277V52.2473V21.1783Z" stroke="black" stroke-width="1.39757" stroke-linecap="round" stroke-linejoin="round"/>
<path d="M20.0495 15.7601H15.7493V20.0603H20.0495V15.7601Z" stroke="black" stroke-width="1.39757" stroke-linecap="round" stroke-linejoin="round"/>
<path d="M37.2504 15.7601H32.9502V20.0603H37.2504V15.7601Z" stroke="black" stroke-width="1.39757" stroke-linecap="round" stroke-linejoin="round"/>
<path d="M28.6501 15.7601H24.3499V20.0603H28.6501V15.7601Z" stroke="black" stroke-width="1.39757" stroke-linecap="round" stroke-linejoin="round"/>
<path d="M20.0495 6.09534H15.7493V10.3848H20.0495V6.09534Z" stroke="black" stroke-width="1.39757" stroke-linecap="round" stroke-linejoin="round"/>
<path d="M37.2504 6.09534H32.9502V10.3848H37.2504V6.09534Z" stroke="black" stroke-width="1.39757" stroke-linecap="round" stroke-linejoin="round"/>
<path d="M28.6501 6.09534H24.3499V10.3848H28.6501V6.09534Z" stroke="black" stroke-width="1.39757" stroke-linecap="round" stroke-linejoin="round"/>
<path d="M20.0495 25.4355H15.7493V29.7357H20.0495V25.4355Z" stroke="black" stroke-width="1.39757" stroke-linecap="round" stroke-linejoin="round"/>
<path d="M7.34225 26.3064H3.92358V29.7358H7.34225V26.3064Z" stroke="black" stroke-width="1.39757" stroke-linecap="round" stroke-linejoin="round"/>
<path d="M7.321 36.111H3.90234V39.5296H7.321V36.111Z" stroke="black" stroke-width="1.39757" stroke-linecap="round" stroke-linejoin="round"/>
<path d="M49.0764 26.3064H45.6577V29.7358H49.0764V26.3064Z" stroke="black" stroke-width="1.39757" stroke-linecap="round" stroke-linejoin="round"/>
<path d="M49.0546 36.111H45.636V39.5296H49.0546V36.111Z" stroke="black" stroke-width="1.39757" stroke-linecap="round" stroke-linejoin="round"/>
<path d="M37.2504 25.4355H32.9502V29.7357H37.2504V25.4355Z" stroke="black" stroke-width="1.39757" stroke-linecap="round" stroke-linejoin="round"/>
<path d="M28.6501 25.4355H24.3499V29.7357H28.6501V25.4355Z" stroke="black" stroke-width="1.39757" stroke-linecap="round" stroke-linejoin="round"/>
<path d="M20.0495 35.1003H15.7493V39.4005H20.0495V35.1003Z" stroke="black" stroke-width="1.39757" stroke-linecap="round" stroke-linejoin="round"/>
<path d="M37.2504 35.1003H32.9502V39.4005H37.2504V35.1003Z" stroke="black" stroke-width="1.39757" stroke-linecap="round" stroke-linejoin="round"/>
<path d="M28.6501 35.1003H24.3499V39.4005H28.6501V35.1003Z" stroke="black" stroke-width="1.39757" stroke-linecap="round" stroke-linejoin="round"/>
<path d="M22.1995 52.301V43.7006H30.7999V52.301" stroke="black" stroke-width="1.39757" stroke-linecap="round" stroke-linejoin="round"/>
<path d="M8.5896 52.3011H7.68656H0.69873V21.1354H8.37459H8.5896" stroke="black" stroke-width="1.39757" stroke-linecap="round" stroke-linejoin="round"/>
<path d="M44.4424 52.3011H52.301V21.1354H44.4424" stroke="black" stroke-width="1.39757" stroke-linecap="round" stroke-linejoin="round"/>
</g>
<defs>
<clipPath id="clip0_12013_159">
<rect width="53" height="53" fill="white"/>
</clipPath>
</defs>
</svg>
