<svg width="48" height="48" viewBox="0 0 48 48" fill="none" xmlns="http://www.w3.org/2000/svg">
<g clip-path="url(#clip0_12014_573)">
<path d="M31.9488 36.127H26.0718V42.007H31.9488V36.127Z" stroke="black" stroke-width="0.932616" stroke-linecap="round" stroke-linejoin="round"/>
<path d="M42.2035 26.0769H36.3264V42.007H42.2035V26.0769Z" stroke="black" stroke-width="0.932616" stroke-linecap="round" stroke-linejoin="round"/>
<path d="M20.7673 26.0848H21.7025V27.0043" stroke="black" stroke-width="0.932616" stroke-linecap="round" stroke-linejoin="round"/>
<path d="M31.9488 26.0769H26.0718V31.9569H31.9488V26.0769Z" stroke="black" stroke-width="0.932616" stroke-linecap="round" stroke-linejoin="round"/>
<path d="M21.694 16.0347H15.8169V21.9147H21.694V16.0347Z" stroke="black" stroke-width="0.932616" stroke-linecap="round" stroke-linejoin="round"/>
<path d="M31.9488 16.0347H26.0718V21.9147H31.9488V16.0347Z" stroke="black" stroke-width="0.932616" stroke-linecap="round" stroke-linejoin="round"/>
<path d="M42.2035 16.0347H36.3264V21.9147H42.2035V16.0347Z" stroke="black" stroke-width="0.932616" stroke-linecap="round" stroke-linejoin="round"/>
<path d="M42.1951 5.98459H15.8169V11.8646H42.1951V5.98459Z" stroke="black" stroke-width="0.932616" stroke-linecap="round" stroke-linejoin="round"/>
<path d="M10.6331 22.318V2.70177C10.6331 1.54029 11.5682 0.604645 12.7291 0.604645H45.2988C46.4517 0.604645 47.3949 1.54029 47.3949 2.70177V45.2896C47.3949 46.4511 46.4517 47.3867 45.2988 47.3867H19.759" stroke="black" stroke-width="0.932616" stroke-linecap="round" stroke-linejoin="round"/>
<path d="M16.2579 46.5412C22.0589 44.1632 24.8347 37.5305 22.4579 31.7266C20.0811 25.9227 13.4518 23.1455 7.6508 25.5235C1.84983 27.9015 -0.926019 34.5342 1.45077 40.3381C3.82755 46.142 10.4569 48.9192 16.2579 46.5412Z" stroke="black" stroke-width="0.932616" stroke-linecap="round" stroke-linejoin="round"/>
<path d="M7.10229 34.6912L11.4799 39.071L17.5504 32.9974" stroke="black" stroke-width="0.932616" stroke-linecap="round" stroke-linejoin="round"/>
</g>
<defs>
<clipPath id="clip0_12014_573">
<rect width="48" height="48" fill="white"/>
</clipPath>
</defs>
</svg>
