<svg width="61" height="43" viewBox="0 0 61 43" fill="none" xmlns="http://www.w3.org/2000/svg">
<g clip-path="url(#clip0_12014_586)">
<path d="M37.0922 20.6773L35.3937 18.9807L34.6609 18.246" stroke="black" stroke-width="1.79885" stroke-linecap="round" stroke-linejoin="round"/>
<path d="M35.1666 26.5528L31.5632 22.9495C32.3566 22.9835 33.0951 22.6749 33.6234 22.1466C34.0475 21.7224 34.3372 21.1563 34.4092 20.5144L34.6421 18.4448C34.9148 18.5754 35.1723 18.7553 35.3976 18.9806L39.0692 22.6522C39.6069 23.1899 39.8777 23.8962 39.8758 24.6025C39.8758 25.3088 39.6069 26.0151 39.0673 26.5528C37.9898 27.6302 36.244 27.6302 35.1666 26.5528Z" stroke="black" stroke-width="1.79885" stroke-linecap="round" stroke-linejoin="round"/>
<path d="M31.1258 30.3153L27.4543 26.6437C26.9165 26.106 26.6458 25.3997 26.6458 24.6934C26.6458 23.9871 26.9165 23.2827 27.4543 22.7431C28.0299 22.1674 28.7968 21.8986 29.5504 21.9402C29.9878 22.478 30.6297 22.851 31.372 22.9343C31.4345 22.9419 31.4988 22.9476 31.5613 22.9495L35.0265 26.4146C35.5642 26.9524 35.835 27.6587 35.835 28.3649C35.835 29.0712 35.5642 29.7756 35.0265 30.3153C33.9491 31.3927 32.2032 31.3927 31.1258 30.3153Z" stroke="black" stroke-width="1.79885" stroke-linecap="round" stroke-linejoin="round"/>
<path d="M22.9326 29.9233L26.6041 33.5948C27.6815 34.6722 29.4274 34.6722 30.5048 33.5948C31.5822 32.5174 31.5822 30.7716 30.5048 29.6942L26.8332 26.0226C25.7558 24.9452 24.01 24.9452 22.9326 26.0226C21.8552 27.1 21.8552 28.8459 22.9326 29.9233Z" stroke="black" stroke-width="1.79885" stroke-linecap="round" stroke-linejoin="round"/>
<path d="M18.479 33.2729L22.1505 36.9445C23.2279 38.0219 24.9737 38.0219 26.0512 36.9445C27.1286 35.8671 27.1286 34.1212 26.0512 33.0438L22.3796 29.3723C21.3022 28.2949 19.5564 28.2949 18.479 29.3723C17.4015 30.4497 17.4015 32.1955 18.479 33.2729Z" stroke="black" stroke-width="1.79885" stroke-linecap="round" stroke-linejoin="round"/>
<path d="M11.793 0.899414L20.3441 9.45056C20.8743 9.33506 21.4102 9.24795 21.9517 9.19115C23.8036 8.99612 26.144 9.30665 27.513 9.42973C29.2834 9.58879 31.1486 9.97128 32.599 11.0582C33.7162 11.8951 34.5739 13.2546 34.8239 14.6331C35.0379 15.8242 34.7898 17.0739 34.6591 18.246L34.6383 18.4448L34.4054 20.5144C34.3335 21.1563 34.0456 21.7225 33.6215 22.1466C33.0932 22.6749 32.3547 22.9836 31.5594 22.9495C31.497 22.9495 31.4345 22.9419 31.3701 22.9343C30.6278 22.851 29.9859 22.478 29.5485 21.9402C29.0998 21.3873 28.8631 20.6621 28.9483 19.9009C28.9483 19.9009 29.2626 17.3977 29.4368 15.845C28.2458 18.477 23.6578 20.13 20.2097 18.5982" stroke="black" stroke-width="1.79885" stroke-linecap="round" stroke-linejoin="round"/>
<path d="M20.7 35.4941C18.7023 33.54 15.0137 29.8268 13.4478 28.0809C12.2454 26.7422 11.435 25.1403 11.1093 23.368C11.0165 22.8586 10.9578 22.3436 10.9313 21.8266L0.899414 11.7928" stroke="black" stroke-width="1.79885" stroke-linecap="round" stroke-linejoin="round"/>
<path d="M34.9089 18.0775L54.7398 1.64169L59.2047 7.02687L39.7355 23.1616" stroke="black" stroke-width="1.79885" stroke-linecap="round" stroke-linejoin="round"/>
<path d="M17.8332 32.6386L12.8589 36.7173L17.32 42.1006L22.9476 37.4842" stroke="black" stroke-width="1.79885" stroke-linecap="round" stroke-linejoin="round"/>
<path d="M24.9585 25.2255L29.0845 21.0995" stroke="black" stroke-width="1.79885" stroke-linecap="round" stroke-linejoin="round"/>
</g>
<defs>
<clipPath id="clip0_12014_586">
<rect width="60.1042" height="43" fill="white"/>
</clipPath>
</defs>
</svg>
