<svg width="52" height="53" viewBox="0 0 52 53" fill="none" xmlns="http://www.w3.org/2000/svg">
<g clip-path="url(#clip0_12014_541)">
<path d="M13.2578 12.0073H6.44946V18.7681H13.2578V12.0073Z" stroke="black" stroke-width="1.06089" stroke-linecap="round" stroke-linejoin="round"/>
<path d="M8.36011 15.018L9.54417 16.1938L11.2664 14.4836" stroke="black" stroke-width="1.06089" stroke-linecap="round" stroke-linejoin="round"/>
<path d="M17.3752 13.2988H31.9517" stroke="black" stroke-width="1.06089" stroke-linecap="round" stroke-linejoin="round"/>
<path d="M17.3752 17.4854H27.96" stroke="black" stroke-width="1.06089" stroke-linecap="round" stroke-linejoin="round"/>
<path d="M13.2578 22.9191H6.44946V29.6799H13.2578V22.9191Z" stroke="black" stroke-width="1.06089" stroke-linecap="round" stroke-linejoin="round"/>
<path d="M8.36011 25.9298L9.54417 27.1056L11.2664 25.3954" stroke="black" stroke-width="1.06089" stroke-linecap="round" stroke-linejoin="round"/>
<path d="M17.3752 24.2106H29.2338" stroke="black" stroke-width="1.06089" stroke-linecap="round" stroke-linejoin="round"/>
<path d="M17.3752 28.3971H27.96" stroke="black" stroke-width="1.06089" stroke-linecap="round" stroke-linejoin="round"/>
<path d="M13.2578 33.8308H6.44946V40.5917H13.2578V33.8308Z" stroke="black" stroke-width="1.06089" stroke-linecap="round" stroke-linejoin="round"/>
<path d="M8.36011 36.8416L9.54417 38.0174L11.2664 36.3071" stroke="black" stroke-width="1.06089" stroke-linecap="round" stroke-linejoin="round"/>
<path d="M17.3752 35.1135H27.96" stroke="black" stroke-width="1.06089" stroke-linecap="round" stroke-linejoin="round"/>
<path d="M17.3752 39.3002H22.6676" stroke="black" stroke-width="1.06089" stroke-linecap="round" stroke-linejoin="round"/>
<path d="M21.2145 48.1542H0.672852V0.667969H37.7286V20.3982" stroke="black" stroke-width="1.06089" stroke-linecap="round" stroke-linejoin="round"/>
<path d="M12.666 6.7608H25.7355" stroke="black" stroke-width="1.06089" stroke-linecap="round" stroke-linejoin="round"/>
<path d="M37.7197 36.3873C41.465 36.3873 44.5011 33.3723 44.5011 29.6532C44.5011 25.934 41.465 22.9191 37.7197 22.9191C33.9744 22.9191 30.9382 25.934 30.9382 29.6532C30.9382 33.3723 33.9744 36.3873 37.7197 36.3873Z" stroke="black" stroke-width="1.06089" stroke-linecap="round" stroke-linejoin="round"/>
<path d="M40.3206 36.4229L38.8764 40.1997H37.7192" stroke="black" stroke-width="1.06089" stroke-linecap="round" stroke-linejoin="round"/>
<path d="M41.0293 52.3318L38.8765 40.2086" stroke="black" stroke-width="1.06089" stroke-linecap="round" stroke-linejoin="round"/>
<path d="M35.1272 36.4229L36.5714 40.1997H37.7196" stroke="black" stroke-width="1.06089" stroke-linecap="round" stroke-linejoin="round"/>
<path d="M36.5715 40.2086L34.4187 52.3318" stroke="black" stroke-width="1.06089" stroke-linecap="round" stroke-linejoin="round"/>
<path d="M35.9701 36.3874H39.4685C46.0077 36.3874 51.3181 41.6607 51.3181 48.1543V52.3319H24.1116V48.1543C24.1116 41.6607 29.4219 36.3874 35.9612 36.3874H35.9701Z" stroke="black" stroke-width="1.06089" stroke-linecap="round" stroke-linejoin="round"/>
</g>
<defs>
<clipPath id="clip0_12014_541">
<rect width="52" height="53" fill="white"/>
</clipPath>
</defs>
</svg>
