<svg width="60" height="60" viewBox="0 0 60 60" fill="none" xmlns="http://www.w3.org/2000/svg">
<g clip-path="url(#clip0_12014_636)">
<path d="M27.72 34.73C26.58 31.42 23.43 29.03 19.73 29.03H9.19C4.53 29.03 0.75 32.81 0.75 37.47V46.65" stroke="black" stroke-width="1.5" stroke-linecap="round" stroke-linejoin="round"/>
<path d="M7.99 38.38V43.34C7.99 43.7 8.28 43.98 8.63 43.98H14.27C15.17 43.98 15.98 44.34 16.57 44.93C17.12 45.48 17.47 46.22 17.52 47.05C17.62 48.93 15.99 50.48 14.1 50.48H4.84C2.58 50.48 0.75 48.65 0.75 46.39V39.94" stroke="black" stroke-width="1.5" stroke-linecap="round" stroke-linejoin="round"/>
<path d="M37.6499 34.73L32.0399 53.08H15.8899L21.5099 34.73H37.6499Z" stroke="black" stroke-width="1.5" stroke-linecap="round" stroke-linejoin="round"/>
<path d="M21.5199 18.84C21.5199 22.74 18.3599 25.9 14.4599 25.9C10.5599 25.9 7.3999 22.74 7.3999 18.84C7.3999 14.94 10.5599 11.78 14.4599 11.78C18.3599 11.78 21.5199 14.94 21.5199 18.84Z" stroke="black" stroke-width="1.5" stroke-linecap="round" stroke-linejoin="round"/>
<path d="M4.73999 58.75V50.5" stroke="black" stroke-width="1.5" stroke-linecap="round" stroke-linejoin="round"/>
<path d="M24.1101 58.75V53.17" stroke="black" stroke-width="1.5" stroke-linecap="round" stroke-linejoin="round"/>
<path d="M58.7499 0.75H43.4199V16.08H58.7499V0.75Z" stroke="black" stroke-width="1.5" stroke-linecap="round" stroke-linejoin="round"/>
<path d="M47.53 7.57L50.46 10.5L54.63 6.33" stroke="black" stroke-width="1.5" stroke-linecap="round" stroke-linejoin="round"/>
<path d="M58.7499 22.08H43.4199V37.41H58.7499V22.08Z" stroke="black" stroke-width="1.5" stroke-linecap="round" stroke-linejoin="round"/>
<path d="M47.53 28.91L50.46 31.83L54.63 27.67" stroke="black" stroke-width="1.5" stroke-linecap="round" stroke-linejoin="round"/>
<path d="M58.7499 43.42H43.4199V58.75H58.7499V43.42Z" stroke="black" stroke-width="1.5" stroke-linecap="round" stroke-linejoin="round"/>
<path d="M47.53 50.24L50.46 53.17L54.63 49" stroke="black" stroke-width="1.5" stroke-linecap="round" stroke-linejoin="round"/>
</g>
<defs>
<clipPath id="clip0_12014_636">
<rect width="59.5" height="59.5" fill="white"/>
</clipPath>
</defs>
</svg>
