<svg width="60" height="49" viewBox="0 0 60 49" fill="none" xmlns="http://www.w3.org/2000/svg">
<g clip-path="url(#clip0_12014_600)">
<path d="M31.47 47.77C32.51 47.98 33.64 47.67 34.44 46.87C35.08 46.23 35.4 45.39 35.4 44.53C35.4 43.67 35.08 42.85 34.44 42.2C35.73 43.49 37.82 43.49 39.11 42.2C40.4 40.91 40.4 38.82 39.11 37.53C40.4 38.82 42.47 38.82 43.76 37.53C45.05 36.24 45.05 34.15 43.76 32.86C45.05 34.15 47.14 34.15 48.43 32.86C49.07 32.22 49.39 31.38 49.39 30.53C49.39 29.68 49.07 28.83 48.43 28.19L46.42 26.18L34.45 14.21" stroke="black" stroke-width="1.5" stroke-linecap="round" stroke-linejoin="round"/>
<path d="M29.78 9.56C27.57 7.49 24.81 6.34 21.99 6.07" stroke="black" stroke-width="1.5" stroke-linecap="round" stroke-linejoin="round"/>
<path d="M11.1299 28.2C9.72993 26.71 8.73993 24.96 8.17993 23.12" stroke="black" stroke-width="1.5" stroke-linecap="round" stroke-linejoin="round"/>
<path d="M13.96 25.37L16 23.33C16.08 23.25 16.14 23.19 16.22 23.12" stroke="black" stroke-width="1.5" stroke-linecap="round" stroke-linejoin="round"/>
<path d="M32.6201 44.03L34.4501 42.2L34.6601 41.99C34.7401 41.91 34.8001 41.85 34.8701 41.77" stroke="black" stroke-width="1.5" stroke-linecap="round" stroke-linejoin="round"/>
<path d="M38.72 6.07C36 6.07 33.2799 6.92 30.9799 8.57C30.5999 8.84 30.2399 9.15 29.8799 9.45L29.77 9.56L23.67 15.66C23.58 15.73 23.53 15.8 23.45 15.88" stroke="black" stroke-width="1.5" stroke-linecap="round" stroke-linejoin="round"/>
<path d="M51.3399 23.13C50.9999 24.24 50.7899 24.86 50.1599 25.86" stroke="black" stroke-width="1.5" stroke-linecap="round" stroke-linejoin="round"/>
<path d="M20.6596 23.765L20.2353 23.3407C19.0638 22.1692 17.1643 22.1692 15.9927 23.3407L10.9086 28.4248C9.73702 29.5964 9.73702 31.4959 10.9086 32.6675L11.3329 33.0917C12.5044 34.2633 14.4039 34.2633 15.5755 33.0917L20.6596 28.0076C21.8312 26.8361 21.8312 24.9366 20.6596 23.765Z" stroke="black" stroke-width="1.5" stroke-linecap="round" stroke-linejoin="round"/>
<path d="M34.4501 14.23L28.3401 20.33C27.1701 21.5 25.2601 21.5 24.1001 20.33L23.6801 19.91C22.5901 18.82 22.5101 17.07 23.4701 15.89C23.5401 15.81 23.6001 15.75 23.6801 15.67L29.7901 9.57L29.9001 9.46" stroke="black" stroke-width="1.5" stroke-linecap="round" stroke-linejoin="round"/>
<path d="M24.9012 28.0017L25.3256 28.4259C26.4925 29.5924 26.4999 31.4946 25.3263 32.6686L20.236 37.7606C19.0695 38.9275 17.1674 38.9349 15.9934 37.7614L15.5691 37.3372C14.4021 36.1706 14.3947 34.2685 15.5683 33.0945L20.6586 28.0025C21.8251 26.8355 23.7272 26.8281 24.9012 28.0017Z" stroke="black" stroke-width="1.5" stroke-linecap="round" stroke-linejoin="round"/>
<path d="M29.9968 33.0925L29.5725 32.6683C28.4009 31.4967 26.5014 31.4967 25.3299 32.6683L20.2458 37.7524C19.0742 38.9239 19.0742 40.8234 20.2458 41.995L20.67 42.4193C21.8416 43.5908 23.7411 43.5908 24.9127 42.4193L29.9968 37.3352C31.1683 36.1636 31.1683 34.2641 29.9968 33.0925Z" stroke="black" stroke-width="1.5" stroke-linecap="round" stroke-linejoin="round"/>
<path d="M34.6496 37.7498L34.2253 37.3256C33.0538 36.154 31.1543 36.154 29.9827 37.3256L24.8986 42.4097C23.727 43.5813 23.727 45.4807 24.8986 46.6523L25.3229 47.0766C26.4944 48.2482 28.3939 48.2482 29.5655 47.0766L34.6496 41.9925C35.8212 40.8209 35.8212 38.9214 34.6496 37.7498Z" stroke="black" stroke-width="1.5" stroke-linecap="round" stroke-linejoin="round"/>
<path d="M43.77 32.87L38.03 27.14" stroke="black" stroke-width="1.5" stroke-linecap="round" stroke-linejoin="round"/>
<path d="M39.11 37.54L33.51 31.93" stroke="black" stroke-width="1.5" stroke-linecap="round" stroke-linejoin="round"/>
<path d="M16.26 23.13H16.22" stroke="black" stroke-width="1.5" stroke-linecap="round" stroke-linejoin="round"/>
<path d="M58.7501 21.69L51.3401 23.13" stroke="black" stroke-width="1.5" stroke-linecap="round" stroke-linejoin="round"/>
<path d="M58.75 0.76L38.72 6.07" stroke="black" stroke-width="1.5" stroke-linecap="round" stroke-linejoin="round"/>
<path d="M8.18 23.13L0.75 21.69" stroke="black" stroke-width="1.5" stroke-linecap="round" stroke-linejoin="round"/>
<path d="M0.75 0.75L17.46 5.44C18.93 5.86 20.46 6.07 21.98 6.07" stroke="black" stroke-width="1.5" stroke-linecap="round" stroke-linejoin="round"/>
</g>
<defs>
<clipPath id="clip0_12014_600">
<rect width="59.5" height="48.71" fill="white"/>
</clipPath>
</defs>
</svg>
