<svg width="60" height="52" viewBox="0 0 60 52" fill="none" xmlns="http://www.w3.org/2000/svg">
<g clip-path="url(#clip0_12014_635)">
<path d="M26.0201 24.0827C26.7669 19.4816 23.6425 15.1462 19.0414 14.3994C14.4404 13.6525 10.105 16.777 9.35816 21.378C8.61131 25.9791 11.7358 30.3145 16.3368 31.0613C20.9379 31.8082 25.2732 28.6837 26.0201 24.0827Z" stroke="black" stroke-width="1.5" stroke-linecap="round" stroke-linejoin="round"/>
<path d="M20.9099 31.21L19.1199 35.95H17.6799" stroke="black" stroke-width="1.5" stroke-linecap="round" stroke-linejoin="round"/>
<path d="M21.7901 51.14L19.1201 35.95" stroke="black" stroke-width="1.5" stroke-linecap="round" stroke-linejoin="round"/>
<path d="M14.4399 31.21L16.2399 35.95H17.6799" stroke="black" stroke-width="1.5" stroke-linecap="round" stroke-linejoin="round"/>
<path d="M16.2401 35.95L13.5701 51.14" stroke="black" stroke-width="1.5" stroke-linecap="round" stroke-linejoin="round"/>
<path d="M15.5 31.16H19.86C28 31.16 34.61 37.77 34.61 45.91V51.14H0.75V45.91C0.75 37.77 7.36 31.16 15.5 31.16Z" stroke="black" stroke-width="1.5" stroke-linecap="round" stroke-linejoin="round"/>
<path d="M38.5099 42.64H58.7499V0.75H14.4099V11.89" stroke="black" stroke-width="1.5" stroke-linecap="round" stroke-linejoin="round"/>
<path d="M32.4299 30.7L34.1099 21.68C34.3899 20.17 36.0999 19.43 37.3999 20.24L41.9499 23.1C43.3499 23.98 45.1799 23.04 45.2699 21.39L45.5799 16.16C45.6099 15.63 45.8399 15.13 46.2099 14.75L51.0499 9.91" stroke="black" stroke-width="1.5" stroke-linecap="round" stroke-linejoin="round"/>
<path d="M51.04 14.43V9.92H46.53" stroke="black" stroke-width="1.5" stroke-linecap="round" stroke-linejoin="round"/>
<path d="M31.68 12.13C33.1712 12.13 34.38 10.9212 34.38 9.43C34.38 7.93883 33.1712 6.73 31.68 6.73C30.1888 6.73 28.98 7.93883 28.98 9.43C28.98 10.9212 30.1888 12.13 31.68 12.13Z" stroke="black" stroke-width="1.5" stroke-linecap="round" stroke-linejoin="round"/>
<path d="M47.76 29.61L51.85 33.71" stroke="black" stroke-width="1.5" stroke-linecap="round" stroke-linejoin="round"/>
<path d="M51.85 29.61L47.76 33.71" stroke="black" stroke-width="1.5" stroke-linecap="round" stroke-linejoin="round"/>
</g>
<defs>
<clipPath id="clip0_12014_635">
<rect width="59.5" height="51.9" fill="white"/>
</clipPath>
</defs>
</svg>
